<?xml version="1.0" standalone="no"?>
<!DOCTYPE svg PUBLIC "-//W3C//DTD SVG 20010904//EN"
 "http://www.w3.org/TR/2001/REC-SVG-20010904/DTD/svg10.dtd">
<svg version="1.0" xmlns="http://www.w3.org/2000/svg"
 width="736.000000pt" height="736.000000pt" viewBox="0 0 736.000000 736.000000"
 preserveAspectRatio="xMidYMid meet">
<metadata>
Created by potrace 1.14, written by Peter Selinger 2001-2017
</metadata>
<g transform="translate(0.000000,736.000000) scale(0.100000,-0.100000)"
fill="#000000" stroke="none">
<path d="M4610 6890 c-7 -22 -18 -40 -23 -40 -6 0 -8 -3 -4 -6 3 -3 -1 -24 -9
-46 -7 -22 -12 -44 -9 -48 3 -5 0 -12 -5 -15 -11 -6 -32 -50 -34 -68 -1 -4 -8
-12 -16 -17 -8 -5 -10 -10 -5 -10 6 0 1 -7 -9 -15 -11 -8 -16 -15 -10 -15 5 0
2 -5 -6 -10 -20 -13 -60 -13 -60 0 0 6 -7 10 -15 10 -8 0 -15 4 -15 9 0 5 -11
8 -24 7 -15 -2 -23 1 -20 8 4 10 -8 15 -53 18 -7 1 -13 4 -13 7 0 9 -54 6 -70
-4 -9 -6 -11 -4 -5 5 6 10 4 12 -9 7 -10 -4 -20 -7 -22 -7 -3 0 -2 -4 1 -10 3
-5 2 -10 -3 -10 -15 0 -6 -60 13 -83 52 -64 52 -63 30 -47 -19 15 -19 15 0
-12 11 -15 23 -28 28 -28 4 0 7 -10 7 -22 0 -12 3 -19 6 -15 8 8 57 -84 56
-106 0 -9 3 -15 8 -12 5 3 11 -58 14 -137 5 -167 7 -188 19 -188 4 0 5 -4 2
-10 -3 -5 -1 -10 4 -10 6 0 10 -3 9 -7 -4 -16 14 -73 22 -73 5 0 7 -7 3 -16
-3 -9 -1 -19 5 -23 5 -3 12 -17 13 -31 2 -14 10 -31 17 -39 7 -7 11 -19 8 -27
-3 -7 -1 -14 4 -16 5 -2 11 -14 12 -28 2 -14 5 -27 8 -30 12 -12 30 -51 21
-46 -5 4 -3 -7 5 -23 10 -20 13 -42 8 -65 -6 -37 -36 -80 -48 -69 -3 3 -6 -1
-6 -11 0 -9 -4 -14 -10 -11 -5 3 -10 1 -10 -4 0 -16 -32 -51 -42 -45 -4 3 -5
-1 -2 -9 3 -8 -2 -17 -11 -21 -10 -4 -15 -12 -11 -22 3 -8 2 -12 -4 -9 -6 3
-15 -6 -20 -20 -5 -14 -14 -23 -20 -20 -5 3 -7 0 -5 -7 3 -8 -4 -24 -15 -36
-12 -12 -18 -27 -15 -32 3 -6 -1 -10 -10 -10 -9 0 -13 -4 -10 -10 3 -5 1 -10
-5 -10 -6 0 -9 -4 -6 -9 3 -5 0 -14 -8 -20 -8 -7 -17 -23 -20 -36 -4 -14 -11
-25 -17 -25 -6 0 -8 -4 -5 -9 5 -7 -11 -44 -49 -111 -8 -14 -15 -19 -15 -11 0
8 -3 12 -6 8 -7 -6 -15 0 -74 54 -21 20 -36 40 -32 44 4 5 1 5 -6 1 -16 -10
-54 22 -45 37 3 5 2 7 -4 4 -9 -6 -51 23 -97 68 -12 11 -38 33 -58 49 -21 15
-35 33 -31 39 3 5 1 7 -5 3 -6 -3 -18 1 -26 10 -9 8 -16 12 -16 8 0 -3 -7 -1
-15 6 -8 7 -15 9 -15 6 0 -4 -7 0 -16 8 -8 9 -20 14 -25 11 -5 -4 -9 -2 -9 4
0 6 -7 8 -15 5 -10 -4 -15 0 -15 11 0 9 -5 13 -11 10 -5 -4 -18 0 -27 8 -18
15 -66 31 -94 30 -10 0 -18 4 -18 9 0 6 -7 8 -15 4 -8 -3 -15 -2 -15 2 0 4
-12 8 -27 8 -72 4 -123 10 -129 16 -4 4 -15 3 -25 -2 -10 -6 -20 -6 -23 -1 -9
14 -307 18 -329 4 -17 -10 -57 -10 -57 0 0 6 -5 6 -12 0 -7 -5 -20 -9 -28 -8
-8 1 -25 -2 -38 -7 -16 -5 -21 -5 -16 3 4 7 0 9 -12 6 -20 -6 -75 -11 -84 -7
-3 1 -22 3 -43 4 -32 1 -37 -1 -34 -16 3 -10 0 -18 -6 -18 -7 0 -4 -5 6 -11 9
-6 15 -14 12 -20 -4 -5 1 -16 10 -25 9 -9 14 -23 11 -30 -3 -8 0 -13 7 -11 7
1 12 -9 11 -25 0 -15 4 -25 8 -22 4 3 8 -2 8 -10 0 -9 9 -31 20 -51 11 -19 17
-35 14 -35 -4 0 1 -11 10 -25 9 -14 14 -31 10 -37 -4 -6 -3 -8 4 -4 6 3 13 -3
17 -14 3 -11 11 -20 16 -20 6 0 8 -4 5 -9 -3 -4 1 -17 9 -27 8 -10 15 -27 15
-36 0 -10 7 -18 15 -18 9 0 12 -6 9 -15 -4 -8 1 -17 10 -21 9 -3 16 -15 16
-25 0 -11 7 -22 15 -25 8 -4 15 -14 15 -23 0 -9 11 -29 25 -45 13 -16 22 -33
18 -39 -3 -5 -2 -7 4 -4 11 7 46 -49 38 -62 -3 -6 5 -8 17 -6 21 4 21 3 6 -9
-10 -7 -16 -15 -13 -17 2 -3 -7 -5 -20 -5 -14 0 -25 4 -25 8 0 4 -9 8 -21 8
-11 0 -17 5 -14 10 4 6 3 10 -2 9 -22 -4 -41 3 -60 20 -12 11 -24 17 -27 14
-3 -4 -6 2 -6 13 0 16 -2 17 -10 4 -8 -13 -10 -13 -10 2 0 11 -5 15 -14 12 -8
-3 -17 0 -21 5 -3 6 -11 9 -16 5 -5 -3 -8 -2 -7 3 2 4 -1 10 -7 11 -5 2 -19 9
-30 15 -11 6 -24 10 -29 9 -5 -2 -16 0 -25 4 -9 4 -18 8 -21 9 -8 2 -94 28
-100 30 -26 7 -109 18 -124 16 -13 -2 -16 1 -11 11 6 10 5 11 -6 1 -14 -14
-33 -18 -26 -5 3 4 -6 7 -19 7 -13 0 -24 -2 -24 -5 0 -3 -35 -5 -78 -5 -42 0
-79 -3 -82 -7 -3 -4 -23 -9 -45 -12 -22 -2 -40 -5 -40 -6 0 -2 -36 -9 -75 -14
-19 -3 -37 -6 -40 -7 -3 -1 -9 -3 -15 -4 -5 -2 -12 -4 -15 -5 -16 -6 -49 -11
-73 -11 -15 0 -25 -4 -22 -8 2 -5 -16 -7 -40 -6 -25 1 -45 -1 -45 -5 0 -4 -6
-7 -12 -7 -27 -2 -84 -12 -115 -22 -17 -5 -33 -8 -35 -6 -2 2 -4 -5 -5 -15 -1
-11 3 -20 8 -20 6 0 8 -4 5 -9 -8 -13 4 -42 15 -35 7 4 11 -11 9 -41 -1 -3 6
-13 15 -21 8 -9 13 -20 10 -25 -4 -5 -3 -9 2 -9 9 0 33 -48 33 -68 0 -7 4 -11
9 -8 4 3 7 -6 5 -19 -1 -14 2 -25 7 -25 6 0 7 -4 4 -10 -3 -5 -1 -10 4 -10 6
0 11 -8 11 -18 0 -10 6 -24 13 -31 10 -11 9 -12 -3 -6 -10 6 -9 2 3 -13 11
-11 16 -26 12 -31 -3 -6 -2 -11 3 -11 9 0 38 -69 34 -83 -1 -5 2 -6 8 -2 5 3
10 -1 10 -9 0 -9 6 -16 13 -16 8 0 7 -4 -3 -10 -13 -8 -13 -10 1 -10 9 0 24
-18 35 -40 10 -22 24 -40 31 -40 7 0 10 -7 6 -17 -4 -10 -2 -14 4 -10 7 4 17
-6 25 -23 7 -16 18 -30 23 -30 6 0 19 -16 29 -35 11 -19 21 -33 24 -30 6 5 52
-46 52 -57 0 -5 9 -8 21 -8 12 0 17 -4 14 -11 -4 -6 2 -13 14 -16 11 -3 18 -9
15 -14 -3 -5 -2 -9 3 -8 18 3 30 -2 63 -31 19 -16 39 -30 43 -30 5 0 6 -4 2
-9 -3 -6 3 -14 12 -20 12 -7 13 -10 4 -11 -11 0 -11 -3 0 -17 12 -16 12 -17
-2 -6 -9 7 -19 10 -22 6 -4 -3 -7 -1 -7 4 0 6 4 13 9 15 5 2 2 9 -6 17 -12 11
-14 11 -12 0 1 -8 1 -23 0 -34 -1 -16 -3 -17 -10 -5 -6 8 -7 19 -5 25 3 5 -1
1 -10 -9 -13 -16 -16 -17 -21 -4 -4 10 -14 14 -26 11 -10 -3 -19 0 -19 6 0 6
-5 11 -11 11 -5 0 -7 -6 -3 -12 6 -10 5 -10 -7 -1 -20 16 -148 11 -158 -6 -5
-7 -12 -13 -17 -13 -21 -1 -33 -11 -27 -22 4 -6 -1 -5 -11 3 -15 12 -17 12
-14 0 2 -8 -4 -14 -12 -13 -9 1 -16 -7 -16 -17 0 -10 4 -16 7 -13 4 2 10 0 14
-6 4 -6 12 -7 24 -1 10 6 31 13 47 16 46 10 217 12 237 3 10 -5 17 -5 17 1 0
6 7 8 15 5 8 -4 12 -11 8 -18 -4 -6 1 -5 10 3 12 9 17 10 17 2 0 -9 5 -9 20
-1 15 8 20 8 20 -1 0 -6 9 -9 20 -6 11 3 23 1 26 -5 4 -7 9 -6 14 2 5 8 11 7
22 -4 9 -8 18 -13 21 -10 3 4 12 2 19 -2 7 -5 18 -9 23 -10 28 -3 75 -17 75
-23 0 -4 15 -7 33 -8 17 0 43 -4 57 -7 14 -4 41 -9 61 -11 20 -2 47 -9 59 -15
17 -9 21 -9 15 0 -5 9 -1 9 16 -1 13 -7 38 -13 54 -14 17 0 39 -6 50 -12 11
-6 28 -9 38 -8 9 2 17 0 17 -4 0 -4 8 -8 18 -9 18 -2 53 -9 62 -12 3 -1 8 -2
13 -1 4 0 7 -3 7 -8 0 -4 10 -7 23 -7 12 1 27 0 32 -3 13 -7 35 -12 58 -14 9
-1 17 -5 17 -9 0 -4 6 -8 14 -8 13 0 26 -19 32 -47 1 -7 -2 -13 -8 -13 -6 0
-8 -6 -5 -14 4 -10 -10 -13 -66 -11 -58 1 -78 -3 -101 -19 -20 -13 -27 -15
-22 -5 4 7 1 6 -8 -5 -8 -10 -21 -16 -28 -13 -7 2 -24 -5 -37 -17 -14 -12 -21
-15 -17 -6 6 12 5 12 -6 -1 -7 -9 -19 -14 -27 -11 -8 2 -11 0 -8 -5 6 -9 -12
-22 -58 -39 -11 -4 -23 -6 -27 -6 -5 1 -7 -4 -5 -11 1 -6 -4 -11 -10 -10 -7 2
-13 -2 -13 -8 0 -5 -4 -8 -9 -5 -5 3 -14 -1 -21 -9 -6 -7 -18 -11 -26 -8 -8 3
-14 0 -14 -7 0 -7 -8 -10 -20 -7 -11 3 -18 2 -15 -3 7 -11 -24 -22 -37 -13 -6
3 -8 1 -4 -5 6 -10 -30 -28 -46 -24 -5 1 -8 -3 -8 -8 0 -6 -9 -10 -21 -10 -11
0 -17 -4 -14 -10 3 -5 -3 -10 -14 -10 -11 0 -23 -5 -26 -11 -4 -6 -13 -8 -21
-5 -9 3 -11 0 -7 -11 4 -11 2 -14 -5 -9 -8 4 -12 0 -12 -11 0 -15 -2 -16 -10
-3 -7 11 -10 11 -10 2 0 -7 -4 -10 -10 -7 -6 3 -7 -1 -4 -9 4 -9 -1 -18 -10
-22 -9 -3 -16 -12 -16 -20 0 -8 -4 -14 -8 -14 -4 0 -8 -9 -8 -20 0 -11 4 -20
9 -20 4 0 6 -4 3 -9 -3 -4 6 -18 19 -31 13 -13 22 -28 18 -34 -4 -7 -2 -7 7 1
9 8 16 7 30 -5 37 -34 50 -43 50 -35 0 4 6 1 13 -7 22 -29 75 -42 167 -42 59
-1 90 -4 90 -12 0 -8 2 -8 8 0 7 11 68 22 162 29 25 2 45 4 45 5 0 2 37 11 53
12 6 1 12 4 12 8 0 3 30 6 68 5 37 0 71 1 77 4 20 10 105 7 105 -3 0 -7 3 -6
8 1 9 14 51 14 69 1 6 -5 14 -5 17 0 9 14 86 13 86 -1 0 -9 2 -9 8 1 9 13 62
13 62 0 0 -11 23 -6 32 7 5 7 8 7 8 0 0 -11 91 -12 108 -1 7 4 12 2 12 -4 0
-8 6 -8 20 0 12 6 67 11 128 10 59 0 115 -1 125 -1 9 0 17 -4 17 -8 0 -4 15
-6 32 -5 18 1 38 -2 44 -7 6 -5 39 -12 73 -15 34 -4 64 -11 67 -15 2 -4 11 -6
19 -2 8 3 15 0 15 -7 0 -6 4 -9 9 -6 5 3 14 -1 21 -9 6 -7 17 -12 24 -9 7 3
19 -2 26 -10 7 -9 16 -13 21 -10 5 3 9 2 8 -3 -1 -4 0 -10 1 -13 9 -24 5 -36
-11 -37 -12 -1 -17 3 -13 10 5 8 3 8 -7 0 -15 -15 -49 -17 -49 -4 0 5 -9 7
-21 4 -12 -4 -25 0 -30 8 -6 9 -9 10 -9 2 0 -7 -9 -10 -22 -7 -13 3 -34 7 -48
9 -14 2 -38 7 -55 11 -16 3 -36 7 -42 7 -7 0 -13 4 -13 9 0 12 -298 10 -305
-3 -4 -6 -13 -8 -21 -5 -8 3 -14 1 -14 -5 0 -6 -4 -8 -9 -4 -5 3 -12 1 -16 -5
-4 -6 -11 -8 -16 -5 -5 4 -9 1 -9 -5 0 -7 -7 -10 -15 -6 -8 3 -15 1 -15 -4 0
-6 -6 -10 -14 -10 -8 0 -21 -6 -28 -14 -8 -7 -24 -17 -36 -20 -12 -4 -22 -14
-22 -22 0 -8 -4 -13 -9 -9 -5 3 -12 1 -16 -5 -4 -6 -11 -8 -16 -5 -5 4 -9 -1
-9 -9 0 -14 -14 -22 -23 -13 -1 1 -18 -13 -37 -30 -19 -18 -41 -33 -47 -33 -7
0 -13 -4 -13 -10 0 -5 -7 -10 -15 -10 -9 0 -18 -7 -22 -16 -3 -8 -12 -13 -20
-10 -8 3 -12 2 -9 -3 3 -5 -10 -16 -29 -25 -19 -9 -35 -21 -35 -26 0 -6 -7
-10 -15 -10 -8 0 -15 -5 -15 -12 0 -6 -2 -9 -6 -6 -3 3 -31 -20 -62 -51 -31
-30 -61 -55 -65 -53 -5 1 -6 -2 -2 -8 3 -5 1 -10 -5 -10 -6 0 -8 -4 -5 -10 3
-5 -1 -10 -10 -10 -9 0 -13 -5 -10 -11 4 -6 -1 -17 -11 -24 -11 -8 -15 -15
-11 -15 4 0 -11 -25 -33 -55 -22 -30 -40 -59 -40 -65 0 -6 -4 -8 -10 -5 -5 3
-10 0 -10 -8 0 -7 -8 -22 -18 -33 -10 -10 -21 -27 -25 -37 -4 -10 -11 -15 -17
-12 -5 3 -10 0 -10 -7 -1 -20 -56 -89 -65 -80 -5 4 -6 0 -3 -9 4 -9 -2 -22
-12 -29 -11 -8 -17 -17 -14 -22 3 -4 0 -8 -5 -8 -6 0 -11 -7 -11 -16 0 -8 -4
-13 -9 -9 -5 3 -12 -4 -16 -15 -4 -11 -10 -18 -14 -16 -4 3 -13 -9 -20 -25 -7
-16 -17 -27 -22 -23 -5 3 -9 -2 -9 -10 0 -9 -8 -16 -17 -16 -9 0 -14 -3 -10
-6 3 -3 -6 -17 -20 -30 -14 -13 -22 -24 -17 -24 5 -1 -2 -9 -15 -20 -12 -11
-28 -17 -34 -13 -6 3 -7 1 -3 -6 8 -12 -108 -131 -127 -131 -4 0 -5 -4 -2 -10
3 -5 3 -10 -2 -10 -4 0 -30 -20 -58 -44 -27 -25 -53 -42 -57 -40 -5 3 -7 2 -6
-3 2 -4 -1 -9 -5 -10 -5 -1 -17 -12 -28 -24 -10 -12 -19 -19 -19 -15 0 3 -10
0 -23 -9 -13 -8 -27 -12 -30 -8 -4 3 -7 1 -7 -6 0 -7 -4 -10 -9 -6 -5 3 -12 1
-16 -5 -4 -6 -10 -8 -15 -5 -5 3 -11 1 -15 -4 -3 -5 -14 -8 -25 -6 -12 2 -18
0 -15 -5 6 -10 -42 -26 -78 -25 -15 1 -27 -3 -27 -8 0 -5 -6 -7 -14 -4 -8 3
-17 3 -20 -1 -4 -3 -21 -7 -39 -8 -17 -2 -54 -6 -82 -10 -27 -3 -58 -7 -67 -7
-9 -1 -15 -4 -13 -7 2 -3 -41 -6 -95 -5 -54 0 -96 -3 -94 -7 3 -5 -2 -8 -10
-8 -9 0 -18 0 -21 0 -11 -1 -55 -48 -55 -59 0 -7 -4 -10 -8 -7 -5 3 -9 -1 -9
-9 0 -8 4 -12 9 -9 4 3 8 0 8 -6 0 -7 7 -10 15 -6 8 3 14 0 12 -7 -1 -7 4 -11
11 -10 6 2 12 -2 12 -8 0 -5 4 -8 9 -4 6 3 14 -3 20 -12 6 -10 11 -15 11 -10
0 4 17 -1 39 -12 21 -11 41 -17 45 -14 3 4 6 2 6 -4 0 -5 12 -9 27 -8 16 1 34
-2 40 -8 9 -6 13 -5 13 3 0 9 7 7 20 -5 11 -10 20 -13 20 -8 0 6 14 9 30 8 17
-1 30 2 30 7 0 5 8 7 18 4 10 -4 39 0 65 8 25 7 48 11 51 8 4 -3 6 0 6 6 0 7
7 12 15 12 9 0 29 7 46 15 16 9 42 17 58 18 19 1 27 6 23 15 -2 7 -1 12 4 10
16 -4 54 13 54 24 0 6 3 8 7 5 3 -4 18 3 31 15 14 13 22 16 18 8 -4 -8 1 -5
11 6 10 12 28 25 41 29 12 3 20 10 17 14 -5 9 44 36 58 32 5 -1 6 2 4 6 -6 10
19 34 27 26 3 -4 6 2 6 12 0 10 2 16 5 13 3 -3 24 12 46 33 23 21 46 36 52 32
5 -3 7 -2 4 4 -7 11 28 45 37 36 3 -4 6 1 6 10 0 10 7 17 15 17 8 0 20 9 27
20 7 11 16 20 21 20 8 0 126 117 123 122 -1 2 8 13 21 25 13 12 23 20 23 18 0
-2 11 6 25 19 14 13 25 27 25 30 0 13 130 136 143 136 7 0 6 4 -3 10 -13 9
-13 10 0 11 8 1 20 0 25 -1 6 -1 7 2 3 6 -4 4 4 18 18 31 14 12 21 23 17 23
-4 0 0 5 10 11 9 6 15 14 12 20 -4 5 1 9 9 9 9 0 16 4 16 10 0 5 36 45 80 90
43 44 77 80 75 80 -3 0 12 16 32 35 20 19 34 35 30 35 -4 0 8 15 27 34 19 19
31 37 28 40 -3 3 2 6 12 6 9 0 14 4 11 10 -3 6 -2 10 3 10 5 0 21 18 36 40 16
24 31 38 38 34 7 -4 8 -3 4 4 -4 7 -2 12 3 12 6 0 10 3 8 8 -1 4 3 8 8 10 6 2
16 14 23 28 7 13 17 24 22 24 5 0 18 10 30 22 11 12 20 18 20 14 0 -4 7 0 16
8 8 9 21 16 28 16 7 0 31 9 54 20 22 11 48 20 56 20 8 0 18 5 21 10 3 6 15 10
26 10 10 0 19 6 19 13 0 8 4 7 10 -3 7 -12 10 -12 10 -1 0 9 8 11 26 7 15 -4
23 -3 20 3 -3 5 1 11 9 15 8 3 15 1 15 -5 0 -6 5 -7 13 -2 6 4 26 8 42 8 17 0
36 5 44 9 10 6 12 5 7 -2 -4 -7 -2 -12 3 -12 6 0 11 4 11 8 0 5 7 9 15 9 8 0
12 -4 10 -8 -3 -4 2 -9 10 -13 8 -3 17 -1 19 3 6 9 111 5 126 -4 6 -3 10 -2
10 2 0 7 80 9 185 3 17 -1 42 1 58 3 15 2 30 1 32 -4 3 -4 13 -8 23 -8 68 -2
92 -5 92 -13 0 -4 11 -8 24 -8 14 0 28 -5 31 -10 4 -6 11 -8 16 -5 5 4 12 0
15 -9 3 -9 12 -12 21 -9 12 5 14 3 8 -7 -5 -9 -4 -11 4 -6 13 8 44 -18 33 -28
-3 -4 1 -4 11 0 9 3 17 2 17 -4 0 -5 9 -12 21 -15 12 -3 19 -10 16 -14 -3 -5
3 -10 14 -10 10 -1 26 -9 35 -18 9 -9 29 -19 45 -22 17 -3 26 -10 22 -16 -4
-6 0 -8 10 -4 10 3 17 2 17 -3 0 -6 9 -10 19 -10 11 0 22 -4 25 -9 7 -10 69
-7 87 5 7 4 9 3 5 -4 -4 -7 3 -7 23 1 17 6 27 15 24 21 -3 5 -1 6 5 2 7 -4 18
-4 25 1 22 14 49 14 41 1 -6 -9 -3 -9 9 0 14 12 19 11 38 -7 13 -12 26 -21 31
-21 4 0 8 -7 8 -17 0 -9 3 -14 6 -10 8 7 34 -17 34 -32 0 -6 7 -7 17 -4 11 4
14 3 9 -5 -4 -7 -3 -12 2 -12 13 0 72 -55 72 -67 0 -6 7 -14 16 -17 9 -3 12
-11 8 -18 -4 -7 -4 -10 1 -6 9 8 35 -15 35 -32 0 -6 5 -8 10 -5 6 3 10 1 10
-4 0 -6 7 -11 15 -11 8 0 15 -4 15 -10 0 -5 5 -10 11 -10 7 0 20 -10 30 -22
11 -11 19 -18 19 -15 0 8 33 -18 74 -58 17 -16 34 -29 38 -28 4 2 8 -1 8 -5 0
-11 35 -52 44 -52 10 0 46 -39 46 -50 0 -5 4 -9 9 -7 5 1 10 -2 12 -8 3 -9 12
-19 64 -76 8 -9 15 -21 15 -28 0 -7 5 -9 10 -6 6 3 10 2 10 -3 0 -5 24 -8 53
-6 28 1 52 3 52 4 0 1 9 3 19 5 10 2 22 8 25 13 3 5 14 8 24 6 9 -1 15 2 12 6
-3 5 3 11 14 15 13 4 18 13 16 25 -2 11 1 20 7 20 6 0 8 3 5 6 -3 4 -2 15 4
25 6 13 6 19 0 19 -6 0 -8 7 -4 16 7 19 -27 84 -45 84 -7 0 -15 7 -18 15 -4 8
-10 12 -15 10 -5 -3 -16 3 -26 15 -10 11 -22 20 -28 20 -6 0 -17 9 -25 20 -8
11 -20 20 -28 20 -7 0 -15 7 -18 15 -3 8 -15 17 -26 21 -11 3 -17 8 -14 11 2
3 -6 15 -20 28 -13 12 -24 28 -24 35 0 7 -3 11 -6 7 -3 -3 -16 5 -29 19 -12
13 -27 24 -34 24 -6 0 -11 7 -11 15 0 8 -3 15 -7 15 -5 0 -23 14 -42 30 -18
17 -40 30 -48 30 -8 0 -12 4 -8 9 3 5 -5 13 -17 17 -13 3 -35 20 -49 35 -14
16 -31 29 -37 29 -7 0 -12 7 -12 17 0 9 -3 14 -6 10 -7 -7 -34 17 -34 30 0 4
-9 14 -20 21 -11 7 -20 19 -20 27 0 8 -5 15 -11 15 -5 0 -8 4 -5 9 3 5 -1 11
-9 15 -8 3 -15 12 -15 21 0 8 -6 15 -12 15 -9 0 -9 3 -3 8 6 4 10 14 10 22 -1
8 5 28 13 43 19 41 28 111 18 152 -2 11 -5 33 -5 48 -1 16 -5 26 -11 22 -6 -3
-7 1 -4 9 3 9 1 16 -4 16 -6 0 -9 9 -7 20 2 11 1 20 -3 20 -4 0 -13 15 -20 33
-8 17 -18 41 -23 52 -6 11 -11 30 -12 42 0 12 -4 20 -8 17 -6 -3 -11 14 -25
84 -1 8 -6 21 -10 30 -8 19 -12 35 -19 72 -27 157 -27 152 -40 340 -2 30 -4
55 -5 55 -1 0 -3 20 -5 45 -11 148 -3 283 19 309 8 11 8 13 -1 8 -8 -5 -11 -1
-10 12 0 11 4 18 8 15 4 -2 6 11 5 28 -1 18 1 38 6 43 9 14 20 64 20 93 0 12
3 22 7 22 4 0 8 10 8 23 3 44 17 125 39 217 15 65 22 105 18 112 -2 4 -1 9 4
12 5 3 7 21 6 40 -2 20 1 36 7 36 6 0 7 5 4 10 -4 6 -2 16 4 23 6 8 6 18 1 27
-5 8 -5 21 0 29 8 16 22 156 24 243 1 27 3 48 6 48 3 0 4 62 2 137 -4 201 -6
243 -13 243 -5 0 -10 40 -10 83 0 9 -4 17 -8 17 -4 0 -8 6 -8 13 -3 45 -12 79
-26 101 -9 14 -17 32 -17 41 0 8 -4 15 -10 15 -5 0 -10 7 -10 15 0 8 -5 15
-11 15 -5 0 -8 4 -5 9 3 5 -1 11 -9 15 -8 3 -15 12 -15 21 0 8 -5 15 -12 15
-6 0 -8 3 -5 7 4 3 -2 13 -13 20 -11 8 -18 19 -15 24 4 5 1 9 -4 9 -6 0 -11 9
-11 20 0 11 -4 20 -10 20 -5 0 -10 6 -10 13 0 18 -50 120 -62 128 -6 4 -8 11
-4 17 3 5 -1 13 -10 16 -9 3 -14 13 -10 21 3 9 -3 19 -15 26 -11 6 -18 17 -15
24 3 10 0 12 -11 8 -11 -4 -14 -2 -9 5 4 7 2 12 -3 12 -6 0 -11 7 -11 16 0 8
-4 13 -8 10 -5 -3 -34 19 -65 49 -31 29 -57 51 -57 48 0 -11 -75 73 -88 97 -7
14 -15 39 -17 55 -2 17 -4 30 -5 30 -2 0 -4 23 -5 50 -4 81 -20 251 -25 265
-1 3 -2 13 -1 23 1 9 -3 17 -10 17 -8 0 -8 4 1 15 10 12 10 15 0 15 -7 0 -10
7 -6 16 4 9 2 13 -5 8 -6 -4 -14 -1 -18 5 -5 7 -13 -5 -21 -29z"/>
<path d="M2110 3800 c0 -5 5 -10 11 -10 5 0 7 5 4 10 -3 6 -8 10 -11 10 -2 0
-4 -4 -4 -10z"/>
</g>
</svg>
